<svg width="82" height="64" viewBox="0 0 82 64" fill="none" xmlns="http://www.w3.org/2000/svg">
<path d="M40.125 16.9531C40.4062 16.6719 40.8281 16.5312 41.25 16.5312C41.5312 16.5312 41.9531 16.6719 42.2344 16.9531L68.25 38.1875V61.25C68.25 62.5156 67.125 63.5 66 63.5H50.1094C48.9844 63.5 47.8594 62.5156 47.8594 61.25V47.75C47.8594 46.625 46.875 45.5 45.6094 45.5H36.6094C35.4844 45.5 34.3594 46.625 34.3594 47.75V61.25C34.3594 62.5156 33.375 63.5 32.25 63.5H16.5C15.2344 63.5 14.25 62.5156 14.25 61.25V38.3281L40.125 16.9531ZM81.0469 31.4375C81.4688 31.7188 81.75 32.2812 81.75 32.7031C81.75 33.125 81.6094 33.5469 81.3281 33.8281L77.6719 38.1875C77.3906 38.6094 76.9688 38.75 76.4062 38.75C75.9844 38.75 75.5625 38.6094 75.2812 38.3281L42.2344 11.1875C41.9531 10.9062 41.5312 10.7656 41.25 10.7656C40.8281 10.7656 40.4062 10.9062 40.125 11.1875L7.07812 38.3281C6.79688 38.6094 6.375 38.75 5.95312 38.75C5.39062 38.75 4.96875 38.6094 4.6875 38.1875L1.03125 33.8281C0.890625 33.5469 0.609375 33.125 0.609375 32.7031C0.609375 32.2812 0.890625 31.7188 1.3125 31.4375L36.8906 2.04688C38.0156 1.20312 39.5625 0.640625 41.25 0.640625C42.7969 0.640625 44.3438 1.20312 45.4688 2.04688L58.125 12.4531V2.32812C58.125 1.34375 58.8281 0.640625 59.8125 0.640625H67.6875C68.5312 0.640625 69.375 1.34375 69.375 2.32812V21.7344L81.0469 31.4375Z" fill="#5E2866"/>
</svg>
